<?xml version="1.0" encoding="utf-8"?>
<!-- Generator: Adobe Illustrator 22.1.0, SVG Export Plug-In . SVG Version: 6.00 Build 0)  -->
<svg version="1.1" id="Layer_1" xmlns="http://www.w3.org/2000/svg" xmlns:xlink="http://www.w3.org/1999/xlink" x="0px" y="0px"
	 viewBox="0 0 128 128" style="enable-background:new 0 0 128 128;" xml:space="preserve">
<style type="text/css">
	.st0{fill:#42A5F5;}
	.st1{fill:#1E88E5;}
	.st2{clip-path:url(#SVGID_2_);}
	.st3{clip-path:url(#SVGID_4_);fill:#1E88E5;}
	.st4{clip-path:url(#SVGID_6_);}
	.st5{clip-path:url(#SVGID_8_);fill:#1E88E5;}
	.st6{clip-path:url(#SVGID_10_);fill:#1E88E5;}
	.st7{fill:#FDD835;}
	.st8{opacity:0.2;}
	.st9{fill:#424242;}
</style>
<path class="st0" d="M95.6,62.5l0-0.2L92,19.8c-0.9-7.2-7-12.3-14.9-11.3l-1.2,0.1c-5.6,0.7-10.1,4.2-11.9,8.7
	c-1.8-4.5-6.3-8-11.9-8.7l-1.2-0.1c-7.9-1-14,4.1-14.9,11.3l-3.6,42.5l0,0.2L27,119.2c-0.1,1.4,0.9,2.6,2.4,2.8l18.5,1.9
	c1.5,0.1,2.8-0.9,2.9-2.3l7-53.5c0.2-0.6,0.3-1.3,0.4-2L64,28.9l5.8,37.3c0.1,0.7,0.2,1.3,0.4,2l7,53.5c0.2,1.4,1.4,2.4,2.9,2.3
	l18.5-1.9c1.5-0.1,2.5-1.4,2.4-2.8C101,119.2,95.6,62.5,95.6,62.5z"/>
<path class="st0" d="M92.6,24.4l-0.9-12.5L91.3,4H36.6l-0.3,8l-0.7,12.3c-1.2,8.3,8,17.2,28.4,17.2S93.7,32.7,92.6,24.4z"/>
<path class="st1" d="M63.9,34.8c-5.4,0-10.2-0.8-12.9-3.7c1.8,4.2,6.9,7.3,12.9,7.3s11.2-3,12.9-7.3C74.1,34,69.3,34.8,63.9,34.8z"
	/>
<g>
	<defs>
		<path id="SVGID_1_" d="M92.6,24.4l-0.9-12.5L91.3,4H36.6l-0.3,8l-0.7,12.3c-1.2,8.3,5.1,15.7,14.7,15.7c0,0,8.1,1.4,13.7,1.4
			s14-1.4,14-1.4C87.4,40.1,93.7,32.7,92.6,24.4z"/>
	</defs>
	<clipPath id="SVGID_2_">
		<use xlink:href="#SVGID_1_"  style="overflow:visible;"/>
	</clipPath>
	<g class="st2">
		<path class="st1" d="M45.5,1.8c0.2,9.2-2,23.9-15,20.6c-1.9-0.5-2.7,2.4-0.8,2.9c6.2,1.5,13.7-1.3,16.3-7.2
			c2.2-5,2.7-10.9,2.6-16.3C48.5-0.2,45.5-0.2,45.5,1.8z"/>
	</g>
</g>
<g>
	<defs>
		<path id="SVGID_3_" d="M92.6,24.4l-0.9-12.5L91.3,4H36.6l-0.3,8l-0.7,12.3c-1.2,8.3,5.1,15.7,14.7,15.7c0,0,8.1,1.4,13.7,1.4
			s14-1.4,14-1.4C87.4,40.1,93.7,32.7,92.6,24.4z"/>
	</defs>
	<clipPath id="SVGID_4_">
		<use xlink:href="#SVGID_3_"  style="overflow:visible;"/>
	</clipPath>
	<path class="st3" d="M95.7,15.9H32.2c-1.1,0-2-0.9-2-2.1s0.9-2.1,2-2.1h63.5c1.1,0,2.1,0.9,2.1,2.1S96.8,15.9,95.7,15.9z"/>
</g>
<g>
	<defs>
		<path id="SVGID_5_" d="M92.6,24.4l-0.9-12.5L91.3,4H36.6l-0.3,8l-0.7,12.3c-1.2,8.3,5.1,15.7,14.7,15.7c0,0,8.1,1.4,13.7,1.4
			s14-1.4,14-1.4C87.4,40.1,93.7,32.7,92.6,24.4z"/>
	</defs>
	<clipPath id="SVGID_6_">
		<use xlink:href="#SVGID_5_"  style="overflow:visible;"/>
	</clipPath>
	<g class="st4">
		<path class="st1" d="M79.4,1.8c-0.1,5.4,0.4,11.3,2.6,16.3c2.6,6,10.1,8.8,16.3,7.2c1.9-0.5,1.1-3.4-0.8-2.9
			c-13,3.3-15.2-11.5-15-20.6C82.4-0.2,79.4-0.2,79.4,1.8z"/>
	</g>
</g>
<g>
	<defs>
		<path id="SVGID_7_" d="M92.6,24.4l-0.9-12.5L91.3,4H36.6l-0.3,8l-0.7,12.3c-1.2,8.3,5.1,15.7,14.7,15.7c0,0,8.1,1.4,13.7,1.4
			s14-1.4,14-1.4C87.4,40.1,93.7,32.7,92.6,24.4z"/>
	</defs>
	<clipPath id="SVGID_8_">
		<use xlink:href="#SVGID_7_"  style="overflow:visible;"/>
	</clipPath>
	<path class="st5" d="M68.7,36.5h-0.2c-0.8,0-1.5-0.7-1.5-1.5V14.3c0-0.8,0.7-1.5,1.5-1.5h0.2c0.8,0,1.5,0.7,1.5,1.5V35
		C70.2,35.8,69.6,36.5,68.7,36.5z"/>
</g>
<g>
	<defs>
		<path id="SVGID_9_" d="M92.6,24.4l-0.9-12.5L91.3,4H36.6l-0.3,8l-0.7,12.3c-1.2,8.3,5.1,15.7,14.7,15.7c0,0,8.1,1.4,13.7,1.4
			s14-1.4,14-1.4C87.4,40.1,93.7,32.7,92.6,24.4z"/>
	</defs>
	<clipPath id="SVGID_10_">
		<use xlink:href="#SVGID_9_"  style="overflow:visible;"/>
	</clipPath>
	<path class="st6" d="M60.8,36.7h-0.2c-0.8,0-1.5-0.7-1.5-1.5V1.5c0-0.8,0.7-1.5,1.5-1.5h0.2c0.8,0,1.5,0.7,1.5,1.5v33.7
		C62.3,36,61.6,36.7,60.8,36.7z"/>
</g>
<ellipse class="st7" cx="64.7" cy="7.9" rx="3.2" ry="3"/>
<g class="st8">
	<path class="st9" d="M88.4,7l0.3,5.1l0.9,12.5c0,0.1,0,0.1,0,0.2c0.1,0.6,0.1,1.2,0,1.8c0,0.2,0,0.4,0,0.6l3,35.3c0,0,0,0.1,0,0.1
		c0,0.1,0,0.1,0,0.2L98,119l-17.8,1.9l-7-53.2c0-0.1,0-0.3-0.1-0.4c-0.2-0.6-0.3-1.1-0.3-1.6c0,0,0-0.1,0-0.1L68.9,41
		c-0.2-1.5-1.5-2.5-3-2.5h-0.1c-0.6,0-1.3,0-1.9,0c-0.6,0-1.2,0-1.8,0h-0.1c-1.5,0-2.7,1.1-3,2.5l-3.8,24.7c0,0,0,0.1,0,0.1
		c-0.1,0.5-0.2,1-0.3,1.6c0,0.1-0.1,0.3-0.1,0.4l-7,53.2L30,119l5.3-56.1l0-0.2c0,0,0-0.1,0-0.1l3-36.2c0-0.1,0-0.3,0-0.4
		c0-0.5,0-0.9,0.1-1.3c0-0.1,0-0.2,0-0.3l0.7-12.3v-0.1L39.5,7H88 M91.3,4H36.6l-0.3,8l-0.7,12.3c-0.1,0.6-0.1,1.2-0.1,1.9l-3,36.2
		l0,0.2L27,119.2c-0.1,1.4,0.9,2.6,2.4,2.8l18.5,1.9c0.1,0,0.2,0,0.3,0c1.4,0,2.5-1,2.7-2.3l7-53.5c0.2-0.6,0.3-1.3,0.4-2L62,41.5
		c0.6,0,1.2,0,1.9,0c0.7,0,1.4,0,2,0l3.8,24.7c0.1,0.7,0.2,1.3,0.4,2l7,53.5c0.1,1.3,1.3,2.3,2.7,2.3c0.1,0,0.2,0,0.3,0l18.5-1.9
		c1.5-0.1,2.5-1.4,2.4-2.8l-5.4-56.6l0-0.2l-3-35.3c0.1-0.9,0.1-1.8,0-2.6l-0.9-12.5C91.7,11.9,91.3,4,91.3,4z"/>
</g>
</svg>
