<svg id="Layer_1" data-name="Layer 1" xmlns="http://www.w3.org/2000/svg" xmlns:xlink="http://www.w3.org/1999/xlink" viewBox="0 0 128 128"><defs><style>.cls-1{fill:none;}.cls-2{fill:#43a047;}.cls-3{fill:url(#linear-gradient);}.cls-4{clip-path:url(#clip-path);}.cls-5{fill:#2e7d32;}.cls-6{opacity:0.2;}.cls-7{fill:#424242;}</style><linearGradient id="linear-gradient" x1="63.78" y1="8.89" x2="63.78" y2="118.89" gradientTransform="matrix(1, 0, 0, -1, 0, 127.89)" gradientUnits="userSpaceOnUse"><stop offset="0" stop-color="#4caf50"/><stop offset="1" stop-color="#81c784"/></linearGradient><clipPath id="clip-path"><path class="cls-1" d="M98.05,119H29.49a5,5,0,0,1-5-5.89s.73-47.74.79-56.06a2,2,0,0,0-1.95-2c-1.5,0-7.44,1.9-8.13,1.9l-3.34,0a5,5,0,0,1-5.06-4.41L3.81,28a5,5,0,0,1,3.31-5.33S28.14,9,39.59,9l.06,0S46,22.28,63.6,22.28,88.2,9,88.2,9C100,9,120.44,22.64,120.44,22.64a5,5,0,0,1,3.3,5.33l-3,24.62a5.06,5.06,0,0,1-5,4.42h-3.4c-.69,0-6.65-1.94-8.15-1.9a2,2,0,0,0-2,2c-.11,8.17.83,56,.83,56a5,5,0,0,1-5,5.88Z"/></clipPath></defs><title>polo_verde_2</title><path class="cls-2" d="M38,9s0,0,0,.12c0,17.6,6.78,21.75,25.82,21.75S89.59,26.79,89.59,9.18a1.31,1.31,0,0,0,0-.19s-5,5-26.08,5S38,9,38,9Z"/><path class="cls-3" d="M98.05,119H29.49a5,5,0,0,1-5-5.89s.73-47.74.79-56.06a2,2,0,0,0-1.95-2c-1.5,0-7.44,1.9-8.13,1.9l-3.34,0a5,5,0,0,1-5.06-4.41L3.81,28a5,5,0,0,1,3.31-5.33S28.14,9,39.59,9l.06,0S46,22.28,63.6,22.28,88.2,9,88.2,9C100,9,120.44,22.64,120.44,22.64a5,5,0,0,1,3.3,5.33l-3,24.62a5.06,5.06,0,0,1-5,4.42h-3.4c-.69,0-6.65-1.94-8.15-1.9a2,2,0,0,0-2,2c-.11,8.17.83,56,.83,56a5,5,0,0,1-5,5.88Z"/><g class="cls-4"><path class="cls-5" d="M95.41-7c0,19.14-14.28,33.65-31.89,33.65S31.62,12.14,31.62-7,45.9-41.65,63.51-41.65,95.41-26.14,95.41-7Z"/></g><g class="cls-6"><path class="cls-7" d="M89.8,12.1c11.08,1.16,28.8,12.92,29,13a3.61,3.61,0,0,0,.65.33,2,2,0,0,1,1.34,2.14l-3,24.62A2,2,0,0,1,115.71,54h-3.18c-.39-.09-1.34-.35-2.06-.55a29.21,29.21,0,0,0-6.25-1.35h-.15A5,5,0,0,0,99.22,57c-.11,8.12.79,54.19.83,56.14a3.57,3.57,0,0,0,0,.46,2,2,0,0,1-.44,1.63,2,2,0,0,1-1.59.74H29.49a2,2,0,0,1-1.59-.74,2,2,0,0,1-.44-1.63,4,4,0,0,0,.05-.47c0-.48.73-47.85.79-56.08a5,5,0,0,0-4.85-5h-.16A29.57,29.57,0,0,0,17,53.42c-.7.2-1.64.46-2,.54l-3.15,0a2.06,2.06,0,0,1-2.05-1.78l-3-24.59a2,2,0,0,1,1.34-2.14,2.77,2.77,0,0,0,.62-.31C8.93,25.05,27.1,13.34,38,12.12l.11.17a3.07,3.07,0,0,0,1.26,1.08C43,15,50.13,17,63.5,17c13.94,0,21.36-2.13,25.12-3.92a3,3,0,0,0,1.18-1M89.58,9l-.06.06Q88.85,9,88.2,9a15.18,15.18,0,0,1-.86,1.37C84.22,11.85,77.31,14,63.5,14c-13,0-19.72-1.91-22.91-3.37A15.46,15.46,0,0,1,39.65,9l-.06,0c-.5,0-1,0-1.54.08L38,9a.24.24,0,0,0,0,.09C26.25,10.23,7.12,22.64,7.12,22.64A5,5,0,0,0,3.81,28l3,24.6a5.06,5.06,0,0,0,5,4.43h.05l3.34-.06c.68,0,6.49-1.94,8.07-1.94h.06a2,2,0,0,1,1.95,2c-.06,8.32-.79,56.07-.79,56.07a5,5,0,0,0,5,5.9H98.05a5,5,0,0,0,5-5.89s-.94-47.93-.83-56.1a2,2,0,0,1,2-2h.06c1.58,0,7.41,2,8.09,2h3.4a5.06,5.06,0,0,0,5-4.42l3-24.62a5,5,0,0,0-3.3-5.33S101.55,10,89.59,9.05A.18.18,0,0,1,89.58,9Z"/></g></svg>